<svg id="present" xmlns="http://www.w3.org/2000/svg" width="38" height="32" viewBox="0 0 38 32">
  <metadata><?xpacket begin="﻿" id="W5M0MpCehiHzreSzNTczkc9d"?>
<x:xmpmeta xmlns:x="adobe:ns:meta/" x:xmptk="Adobe XMP Core 5.6-c140 79.160451, 2017/05/06-01:08:21        ">
   <rdf:RDF xmlns:rdf="http://www.w3.org/1999/02/22-rdf-syntax-ns#">
      <rdf:Description rdf:about=""/>
   </rdf:RDF>
</x:xmpmeta>
                                                                                                    
                                                                                                    
                                                                                                    
                                                                                                    
                                                                                                    
                                                                                                    
                                                                                                    
                                                                                                    
                                                                                                    
                                                                                                    
                                                                                                    
                                                                                                    
                                                                                                    
                                                                                                    
                                                                                                    
                                                                                                    
                                                                                                    
                                                                                                    
                                                                                                    
                                                                                                    
                           
<?xpacket end="w"?></metadata>
<defs>
    <style>
      .cls-1 {
        fill: #fff;
      }

      .cls-1, .cls-2 {
        fill-rule: evenodd;
      }

      .cls-2 {
        fill: #e13c77;
      }
    </style>
  </defs>
  <path id="Forma_1" data-name="Forma 1" class="cls-1" d="M970.994,5048.18V5068H945.23v-10.35l7.5-9.46h3.294v19.13h4.359v-19.14h10.611Zm-24.62,6.7-6.895,8.65-4.631-4.01,6.363-7.98a8.629,8.629,0,0,1-3.506.08c-2.821-.48-4.928-2.01-4.709-3.43a1.429,1.429,0,0,1,.3-0.67c0.776-.97,2.874-1.42,5.213-1.03a9.589,9.589,0,0,1,2.148.63,10.727,10.727,0,0,1-.99-2.08c-0.8-2.33-.761-4.55.014-5.53a1.314,1.314,0,0,1,.575-0.43c1.3-.49,3.134,1.39,4.107,4.19a9.63,9.63,0,0,1,.575,3.59l6.364-7.97,4.635,4-6.779,8.5-4.686-4.05-2.785,3.49ZM941,5044.53a9.09,9.09,0,0,0,.848,1.79l0.874,1.41,0.59,0.07c0.244-.41.438-1.94-0.286-4.03-0.75-2.16-1.872-3.16-2.281-3.27C940.473,5040.91,940.28,5042.45,941,5044.53Zm0.78,5.16-0.189-.58-1.47-.62a8.342,8.342,0,0,0-1.841-.54c-2.1-.36-3.519.13-3.864,0.48,0.182,0.4,1.34,1.36,3.515,1.73C940.009,5050.51,941.415,5050.05,941.784,5049.69Z" transform="translate(-933 -5036)"/>
  <path id="Forma_1_копия_3" data-name="Forma 1 копия 3" class="cls-2" d="M965,5043.9a1.034,1.034,0,0,1,.823-0.43h0.088a0.968,0.968,0,0,1,.727.37,1.056,1.056,0,0,1,.141.82,6.235,6.235,0,0,1-1.674,2.25,0.178,0.178,0,0,1-.2,0,6.257,6.257,0,0,1-1.688-2.25,1.069,1.069,0,0,1,.144-0.82,0.981,0.981,0,0,1,.733-0.37h0.084A1.032,1.032,0,0,1,965,5043.9Zm0.742-.13a1.1,1.1,0,0,1,.828,1.02C966.668,5043.63,965.742,5043.77,965.742,5043.77Zm-7.993.83a0.864,0.864,0,0,1,.646-0.32h0.074a0.9,0.9,0,0,0,1.457,0H960a0.861,0.861,0,0,1,.647.32,0.95,0.95,0,0,1,.127.73,5.532,5.532,0,0,1-1.48,1.98,0.159,0.159,0,0,1-.094.03,0.1,0.1,0,0,1-.088-0.03,5.5,5.5,0,0,1-1.492-1.98A0.946,0.946,0,0,1,957.749,5044.6Zm2.105-.06a0.982,0.982,0,0,1,.73.91C960.671,5044.42,959.854,5044.54,959.854,5044.54Zm-0.528-6.56a1.8,1.8,0,0,1,.237-1.38,1.637,1.637,0,0,1,1.219-.6,0.693,0.693,0,0,1,.145-0.01,1.684,1.684,0,0,0,2.748,0,0.689,0.689,0,0,1,.143.01,1.628,1.628,0,0,1,1.216.6,1.786,1.786,0,0,1,.24,1.38c-0.222,1.4-2.691,3.65-2.8,3.74a0.239,0.239,0,0,1-.338,0C962.035,5041.63,959.547,5039.38,959.326,5037.98Zm4.211-1.49a1.83,1.83,0,0,1,1.376,1.7C965.077,5036.26,963.539,5036.49,963.537,5036.49Z" transform="translate(-933 -5036)"/>
</svg>
