<svg id="ring" xmlns="http://www.w3.org/2000/svg" width="34" height="32" viewBox="0 0 34 32">
  <metadata><?xpacket begin="﻿" id="W5M0MpCehiHzreSzNTczkc9d"?>
<x:xmpmeta xmlns:x="adobe:ns:meta/" x:xmptk="Adobe XMP Core 5.6-c140 79.160451, 2017/05/06-01:08:21        ">
   <rdf:RDF xmlns:rdf="http://www.w3.org/1999/02/22-rdf-syntax-ns#">
      <rdf:Description rdf:about=""/>
   </rdf:RDF>
</x:xmpmeta>
                                                                                                    
                                                                                                    
                                                                                                    
                                                                                                    
                                                                                                    
                                                                                                    
                                                                                                    
                                                                                                    
                                                                                                    
                                                                                                    
                                                                                                    
                                                                                                    
                                                                                                    
                                                                                                    
                                                                                                    
                                                                                                    
                                                                                                    
                                                                                                    
                                                                                                    
                                                                                                    
                           
<?xpacket end="w"?></metadata>
<defs>
    <style>
      .cls-1 {
        fill: #fff;
      }

      .cls-1, .cls-2 {
        fill-rule: evenodd;
      }

      .cls-2 {
        fill: #e13c77;
      }
    </style>
  </defs>
  <path id="Forma_1" data-name="Forma 1" class="cls-1" d="M1370.22,4719.21a10.672,10.672,0,0,1-12.44,0,10.9,10.9,0,0,0,0,21.79,10.672,10.672,0,0,1,12.44,0A10.9,10.9,0,0,0,1370.22,4719.21ZM1364,4735.2a8.16,8.16,0,1,1,1.79-5.1A8.11,8.11,0,0,1,1364,4735.2Zm-14.23-5.1a8.066,8.066,0,0,1,8.01-8.1,7.92,7.92,0,0,1,4.14,1.17,10.936,10.936,0,0,0,0,13.87,7.912,7.912,0,0,1-4.14,1.16A8.06,8.06,0,0,1,1349.77,4730.1Zm20.45,8.1a7.851,7.851,0,0,1-4.13-1.16,10.971,10.971,0,0,0,0-13.87,7.859,7.859,0,0,1,4.13-1.17A8.1,8.1,0,0,1,1370.22,4738.2Z" transform="translate(-1347 -4709)"/>
  <path id="Forma_1_копия_2" data-name="Forma 1 копия 2" class="cls-2" d="M1364,4718.02a5.634,5.634,0,0,0,2.48-1.53,13.554,13.554,0,0,0,2.3-2.34,3.461,3.461,0,0,0,.64-2.19,3.078,3.078,0,0,0-3.02-2.96,3.386,3.386,0,0,0-2.39,1.34,3.321,3.321,0,0,0-2.41-1.34,3.078,3.078,0,0,0-3.02,2.96,3.542,3.542,0,0,0,.64,2.19C1359.87,4715.16,1363.05,4718.02,1364,4718.02Z" transform="translate(-1347 -4709)"/>
</svg>
