<svg id="money" xmlns="http://www.w3.org/2000/svg" width="30" height="32" viewBox="0 0 30 32">
  <metadata><?xpacket begin="﻿" id="W5M0MpCehiHzreSzNTczkc9d"?>
<x:xmpmeta xmlns:x="adobe:ns:meta/" x:xmptk="Adobe XMP Core 5.6-c140 79.160451, 2017/05/06-01:08:21        ">
   <rdf:RDF xmlns:rdf="http://www.w3.org/1999/02/22-rdf-syntax-ns#">
      <rdf:Description rdf:about=""/>
   </rdf:RDF>
</x:xmpmeta>
                                                                                                    
                                                                                                    
                                                                                                    
                                                                                                    
                                                                                                    
                                                                                                    
                                                                                                    
                                                                                                    
                                                                                                    
                                                                                                    
                                                                                                    
                                                                                                    
                                                                                                    
                                                                                                    
                                                                                                    
                                                                                                    
                                                                                                    
                                                                                                    
                                                                                                    
                                                                                                    
                           
<?xpacket end="w"?></metadata>
<defs>
    <style>
      .cls-1 {
        fill: #fff;
      }

      .cls-1, .cls-2 {
        fill-rule: evenodd;
      }

      .cls-2 {
        fill: #e13c77;
      }
    </style>
  </defs>
  <path id="currency-4" class="cls-1" d="M960.21,4736.86a12.685,12.685,0,0,1-4.3,1.33V4741h-2.727v-2.66A19.284,19.284,0,0,1,945,4736.4l1.24-4.38c2.607,0.99,6.078,2.04,8.8,1.44,3.134-.7,3.775-3.85.311-5.37-2.541-1.15-10.3-2.14-10.3-8.64,0-3.64,2.833-6.89,8.139-7.6V4709h2.727v2.71a25.916,25.916,0,0,1,6.661,1.13l-0.988,4.39a17.854,17.854,0,0,0-6.661-1.24c-4.062.23-4.419,3.67-1.585,5.11,3.893,1.79,8.761,3.2,10.274,6.94A8.516,8.516,0,0,0,960.21,4736.86Z" transform="translate(-945 -4709)"/>
  <path id="currency-4_копия" data-name="currency-4 копия" class="cls-2" d="M968.864,4731.67l3.409,4h-2.728v2.66h-1.363v-2.66h-2.728Zm0,9.33a6,6,0,1,0-6.137-6A6.071,6.071,0,0,0,968.864,4741Z" transform="translate(-945 -4709)"/>
</svg>
