<svg id="star" xmlns="http://www.w3.org/2000/svg" width="35" height="32" viewBox="0 0 35 32">
  <metadata><?xpacket begin="﻿" id="W5M0MpCehiHzreSzNTczkc9d"?>
<x:xmpmeta xmlns:x="adobe:ns:meta/" x:xmptk="Adobe XMP Core 5.6-c140 79.160451, 2017/05/06-01:08:21        ">
   <rdf:RDF xmlns:rdf="http://www.w3.org/1999/02/22-rdf-syntax-ns#">
      <rdf:Description rdf:about=""/>
   </rdf:RDF>
</x:xmpmeta>
                                                                                                    
                                                                                                    
                                                                                                    
                                                                                                    
                                                                                                    
                                                                                                    
                                                                                                    
                                                                                                    
                                                                                                    
                                                                                                    
                                                                                                    
                                                                                                    
                                                                                                    
                                                                                                    
                                                                                                    
                                                                                                    
                                                                                                    
                                                                                                    
                                                                                                    
                                                                                                    
                           
<?xpacket end="w"?></metadata>
<defs>
    <style>
      .cls-1 {
        fill: #fff;
      }

      .cls-1, .cls-2 {
        fill-rule: evenodd;
      }

      .cls-2 {
        fill: #e13c77;
      }
    </style>
  </defs>
  <path id="award-23" class="cls-1" d="M547.171,4733.25l3.417,4.85a16.464,16.464,0,0,0-3.321,3.9l-0.826-4.36H543A20.9,20.9,0,0,1,547.171,4733.25ZM578,4737.64h-3.441l-0.826,4.36a16.464,16.464,0,0,0-3.321-3.9l3.417-4.85A20.9,20.9,0,0,1,578,4737.64Zm-6.188-4.06-3.4,4.83a15.681,15.681,0,0,0-15.816,0l-3.4-4.83A21.537,21.537,0,0,1,571.812,4733.58Zm-22.322-3.56a12.976,12.976,0,0,1-2-6.93,13.125,13.125,0,1,1,24.161,7.07,25.114,25.114,0,0,0-2.716-1.19,10.092,10.092,0,0,0,1.888-5.88,10.208,10.208,0,0,0-20.416,0,10.084,10.084,0,0,0,1.814,5.78A25.081,25.081,0,0,0,549.49,4730.02Z" transform="translate(-543 -4710)"/>
  <path id="award-23_копия" data-name="award-23 копия" class="cls-2" d="M563.316,4723.45l2.946-2.97-4.05-.59-1.783-3.86-1.783,3.86-4.051.59,2.948,2.97-0.717,4.22,3.6-2.02,3.6,2.02Z" transform="translate(-543 -4710)"/>
</svg>
