<svg id="map" xmlns="http://www.w3.org/2000/svg" width="34" height="32" viewBox="0 0 34 32">
  <metadata><?xpacket begin="﻿" id="W5M0MpCehiHzreSzNTczkc9d"?>
<x:xmpmeta xmlns:x="adobe:ns:meta/" x:xmptk="Adobe XMP Core 5.6-c140 79.160451, 2017/05/06-01:08:21        ">
   <rdf:RDF xmlns:rdf="http://www.w3.org/1999/02/22-rdf-syntax-ns#">
      <rdf:Description rdf:about=""/>
   </rdf:RDF>
</x:xmpmeta>
                                                                                                    
                                                                                                    
                                                                                                    
                                                                                                    
                                                                                                    
                                                                                                    
                                                                                                    
                                                                                                    
                                                                                                    
                                                                                                    
                                                                                                    
                                                                                                    
                                                                                                    
                                                                                                    
                                                                                                    
                                                                                                    
                                                                                                    
                                                                                                    
                                                                                                    
                                                                                                    
                           
<?xpacket end="w"?></metadata>
<defs>
    <style>
      .cls-1 {
        fill: #fff;
      }

      .cls-1, .cls-2 {
        fill-rule: evenodd;
      }

      .cls-2 {
        fill: #e13c77;
      }
    </style>
  </defs>
  <path id="Map_Route_Icon_копия" data-name="Map Route Icon копия" class="cls-1" d="M568.5,5061.6l-7.437,4.26-9.561-2.13-8.5,4.26v-25.61l8.5-4.24,9.561,4.26,7.437-6.39,8.5,5.33v24.52Zm6.374-19.2-6.374-4.26-7.437,6.4-9.561-4.27-6.374,3.2v21.32l6.374-3.19,9.561,2.13,7.437-4.27,6.374,3.2V5042.4Z" transform="translate(-543 -5036)"/>
  <path id="Map_Route_Icon_копия_2" data-name="Map Route Icon копия 2" class="cls-2" d="M569.561,5041.34a1.058,1.058,0,0,1,1.062,1.06v13.86a1.063,1.063,0,1,1-2.125,0V5042.4A1.059,1.059,0,0,1,569.561,5041.34Zm-8.5,19.19a1.067,1.067,0,0,1-1.062-1.07v-11.73a1.063,1.063,0,0,1,2.125,0v11.73A1.067,1.067,0,0,1,561.061,5060.53Zm-8.5-1.07a1.065,1.065,0,0,1-1.063-1.06v-13.86a1.063,1.063,0,1,1,2.125,0v13.86A1.064,1.064,0,0,1,552.563,5059.46Z" transform="translate(-543 -5036)"/>
</svg>
