<svg id="money-1" xmlns="http://www.w3.org/2000/svg" width="25" height="32" viewBox="0 0 25 32">
  <metadata><?xpacket begin="﻿" id="W5M0MpCehiHzreSzNTczkc9d"?>
<x:xmpmeta xmlns:x="adobe:ns:meta/" x:xmptk="Adobe XMP Core 5.6-c140 79.160451, 2017/05/06-01:08:21        ">
   <rdf:RDF xmlns:rdf="http://www.w3.org/1999/02/22-rdf-syntax-ns#">
      <rdf:Description rdf:about=""/>
   </rdf:RDF>
</x:xmpmeta>
                                                                                                    
                                                                                                    
                                                                                                    
                                                                                                    
                                                                                                    
                                                                                                    
                                                                                                    
                                                                                                    
                                                                                                    
                                                                                                    
                                                                                                    
                                                                                                    
                                                                                                    
                                                                                                    
                                                                                                    
                                                                                                    
                                                                                                    
                                                                                                    
                                                                                                    
                                                                                                    
                           
<?xpacket end="w"?></metadata>
<defs>
    <style>
      .cls-1 {
        fill: #fff;
      }

      .cls-1, .cls-2 {
        fill-rule: evenodd;
      }

      .cls-2 {
        fill: #e13c77;
      }
    </style>
  </defs>
  <path class="cls-1" d="M1360.5,5060.21a9.211,9.211,0,0,0,0-18.42,9.045,9.045,0,0,0-6.63,2.91,9.253,9.253,0,0,0-2.45,6.29A9.149,9.149,0,0,0,1360.5,5060.21Zm-3.17-5.57c0.08-.3.16-0.6,0.26-0.9,0.11-.34.2-0.39,0.51-0.22a4.714,4.714,0,0,0,1.71.52,2.059,2.059,0,0,0,1.12-.15,0.884,0.884,0,0,0,.2-1.55,2.711,2.711,0,0,0-.63-0.38,13.824,13.824,0,0,1-1.75-.8,2.509,2.509,0,0,1-1.4-2.39,2.645,2.645,0,0,1,1.91-2.45c0.46-.17.47-0.17,0.47-0.66v-0.51c0.01-.37.07-0.43,0.44-0.45h0.34c0.78,0,.78,0,0.79.79,0,0.57,0,.57.55,0.65a4.7,4.7,0,0,1,1.21.37,0.35,0.35,0,0,1,.23.47c-0.1.34-.19,0.69-0.3,1.03-0.1.32-.19,0.36-0.5,0.21a3.764,3.764,0,0,0-1.92-.38,1.54,1.54,0,0,0-.51.1,0.747,0.747,0,0,0-.18,1.32,3.235,3.235,0,0,0,.83.47c0.51,0.22,1.03.43,1.52,0.7a2.79,2.79,0,0,1,.88,4.21,2.934,2.934,0,0,1-1.51.98,0.435,0.435,0,0,0-.37.49c0.01,0.28,0,.55,0,0.82a0.337,0.337,0,0,1-.36.38h-0.86a0.358,0.358,0,0,1-.38-0.4v-0.59c-0.01-.44-0.02-0.46-0.43-0.53a4.8,4.8,0,0,1-1.54-.45A0.464,0.464,0,0,1,1357.33,5054.64Z" transform="translate(-1348 -5035)"/>
  <path id="Shape_1_копия_2" data-name="Shape 1 копия 2" class="cls-2" d="M1370.33,5060.98a13.8,13.8,0,0,1-19.11.54h1.75v-1.89H1348v5.04h1.87v-1.84a15.628,15.628,0,0,0,21.78-.51l0.66-.67-1.32-1.34Zm0.8-23.65v1.84a15.628,15.628,0,0,0-21.78.51l-0.66.67,1.32,1.34,0.66-.68a13.8,13.8,0,0,1,19.11-.54h-1.75v1.9H1373v-5.04h-1.87Z" transform="translate(-1348 -5035)"/>
</svg>
